<svg width="20" height="20" viewBox="0 0 20 20" fill="none" xmlns="http://www.w3.org/2000/svg">
<g clip-path="url(#clip0_437_7849)">
<mask id="mask0_437_7849" style="mask-type:alpha" maskUnits="userSpaceOnUse" x="0" y="0" width="20" height="20">
<rect width="20" height="20" fill="#D9D9D9"/>
</mask>
<g mask="url(#mask0_437_7849)">
<path d="M5.875 15.75L6.53708 16.4121C6.69292 16.5679 6.77083 16.7465 6.77083 16.9479C6.77083 17.1493 6.69778 17.3264 6.55167 17.4792C6.39222 17.6319 6.21181 17.7083 6.01042 17.7083C5.80903 17.7083 5.63229 17.6326 5.48021 17.481L3.52167 15.5302C3.44556 15.4545 3.39167 15.3725 3.36 15.2842C3.32833 15.1957 3.3125 15.101 3.3125 15C3.3125 14.899 3.32833 14.8043 3.36 14.7158C3.39167 14.6275 3.44556 14.5455 3.52167 14.4698L5.48021 12.5189C5.63229 12.3674 5.80903 12.2917 6.01042 12.2917C6.21181 12.2917 6.39222 12.368 6.55167 12.5208C6.69778 12.6736 6.77083 12.8507 6.77083 13.0521C6.77083 13.2535 6.69292 13.4321 6.53708 13.5879L5.875 14.25H14.5V11.75C14.5 11.5375 14.5715 11.3594 14.7144 11.2156C14.8573 11.0719 15.0344 11 15.2456 11C15.4569 11 15.6354 11.0719 15.7812 11.2156C15.9271 11.3594 16 11.5375 16 11.75V14.25C16 14.6625 15.8531 15.0156 15.5594 15.3094C15.2656 15.6031 14.9125 15.75 14.5 15.75H5.875ZM14.125 5.74999H5.5V8.24999C5.5 8.46249 5.42854 8.64062 5.28563 8.78437C5.14271 8.92812 4.96563 8.99999 4.75438 8.99999C4.54313 8.99999 4.36458 8.92812 4.21875 8.78437C4.07292 8.64062 4 8.46249 4 8.24999V5.74999C4 5.33749 4.14687 4.98437 4.44062 4.69062C4.73437 4.39687 5.0875 4.24999 5.5 4.24999H14.125L13.4629 3.58791C13.3071 3.43207 13.2292 3.25346 13.2292 3.05207C13.2292 2.85068 13.3022 2.6736 13.4483 2.52082C13.6078 2.36805 13.7882 2.29166 13.9896 2.29166C14.191 2.29166 14.3677 2.36742 14.5198 2.51895L16.4783 4.46978C16.5544 4.54548 16.6083 4.62749 16.64 4.71582C16.6717 4.8043 16.6875 4.89902 16.6875 4.99999C16.6875 5.10096 16.6717 5.19568 16.64 5.28416C16.6083 5.37249 16.5544 5.4545 16.4783 5.5302L14.5198 7.48103C14.3677 7.63256 14.1944 7.70485 14 7.69791C13.8056 7.69096 13.6286 7.6111 13.4692 7.45832C13.3231 7.30555 13.25 7.12846 13.25 6.92707C13.25 6.72568 13.3261 6.54888 13.4783 6.39666L14.125 5.74999Z" fill="#BAC8DE"/>
</g>
</g>
<defs>
<clipPath id="clip0_437_7849">
<rect width="20" height="20" fill="white"/>
</clipPath>
</defs>
</svg>
